<svg xmlns="http://www.w3.org/2000/svg" width="600" height="600" viewBox="0 0 600 600">
  <defs>
    <style>
      .cls-1, .cls-2 {
        fill: #fff;
        stroke: #000;
        fill-rule: evenodd;
      }

      .cls-1 {
        stroke-width: 4.43px;
      }

      .cls-2 {
        stroke-width: 3.79px;
      }
    </style>
  </defs>
  <path id="Эллипс_2" data-name="Эллипс 2" class="cls-1" d="M568.683,285.133c-53.971,147.1-270.154,260.851-425.793,224.678C15.31,480.16-12.224,363.542,68.3,252.133,136.578,157.662,265.965,88.684,385.392,83.72,526.434,77.858,613.069,164.154,568.683,285.133ZM380.776,91.809C267.745,96,147.561,158.167,87.9,241.687,18.814,338.4,50.338,437.854,170.367,461.5c143.4,28.254,335.659-67.616,383.4-192.83C594.086,162.929,511.868,86.949,380.776,91.809ZM86.789,111.126c-32.3,34.562-54.956,77.08-64.092,123.956C18.331,181.305,42.682,137.758,86.789,111.126Zm487.986,224.14c19.611,80.726-19.861,151.339-115.109,173.475a256.805,256.805,0,0,1-32.527,5.313C501.794,478.742,557.167,413.431,574.775,335.266Z"/>
  <path id="Линия_3" data-name="Линия 3" class="cls-2" d="M297,334a484.66,484.66,0,0,1-147.616-23.8A420.588,420.588,0,0,0,197,325a425.63,425.63,0,0,0,100,12.277V442.746c-15.607-9.729-29.9-14.088-43-12.746-3.934.4-10.442,0.789-16,1a40.149,40.149,0,0,1-17-3c-1.626-.72-3.042-1.681-4.629-2.49C207.5,420.987,199.059,413.883,191,405c-9.9-13.153-19.737-25.617-30-38-17.247-20.81-39.525-45.371-42-52a7.95,7.95,0,0,0-3-4,8.969,8.969,0,0,0-3-1c-1.9-.447-5.275-3.786-8-10a38.943,38.943,0,0,1-2.452-7.76c-0.182-.081-0.366-0.159-0.548-0.24,0.127-.19.263-0.373,0.391-0.562-0.15-.807-0.289-1.617-0.391-2.438,0.511,0.267,1.026.524,1.538,0.788A104.38,104.38,0,0,1,124,268a120.312,120.312,0,0,1,17-11c5.416-3.05,13.173-7.5,16-9,11.315-6.007,24.438-12.708,37-19-8.706,14.05-16.238,30.933-10.127,38.807C183.085,260.731,183.919,254,187,248c1.961-3.816,4.367-5.726,7-9,12.782-15.892.687-34.233,9-51,1.205-2.43,4.093-7.6,2-11-2.234-3.633-8.7-2.16-10-5-1.055-2.308,1.933-6.087,6.089-10.023A381.191,381.191,0,0,1,409,165l-4.953-2.72a298.248,298.248,0,0,0-200-2l-2.887,1.629c3.7-3.49,8.3-7.1,11.84-9.909,6.795-5.393,13.374-10.989,20-17a283.591,283.591,0,0,1,134,0c20.824,12.848,47.541,30.416,45,36-0.422.927-1.576,1.323-3,1.679V167a692.253,692.253,0,0,1-107,8,692.3,692.3,0,0,1-103-8v7a692.3,692.3,0,0,0,103,8,692.154,692.154,0,0,0,101.215-7.17A6.535,6.535,0,0,0,402,176c-3.588,4.5-.96,12.044,0,15,5.237,16.12-.845,28.376,9,45,2.09,3.529,6.692,11.142,8,20a44.075,44.075,0,0,1,.424,5.158C422.006,252.442,417.93,240.1,412,229c7.339,3.64,14.648,7.295,22,11,24.951,12.575,43.772,22.9,60,44,1.759,2.287,3.406,4.593,5,7A485.032,485.032,0,0,1,297,334ZM185.265,269.253A13.683,13.683,0,0,0,192,272c7.222,1.118,18.511,2.483,31.724,3.767Q204.413,273.157,185.265,269.253ZM407,246c-2.057-9.059-7.721-13.364-10-21-1.249-4.185-.975-24.278-9-32a20.708,20.708,0,0,0-6-4,408.443,408.443,0,0,1-79,8,408.528,408.528,0,0,1-82-8,11.461,11.461,0,0,0-6,2c-6.549,4.673-3.767,14.857-6,28-1.741,10.247-8.568,15.355-10,27a53.645,53.645,0,0,0,0,13,452.305,452.305,0,0,0,125,13,450.674,450.674,0,0,0,84-11A48.773,48.773,0,0,0,407,246Zm-29.469,30c11.251-1.18,21.061-2.547,28.469-4a24.581,24.581,0,0,0,4.686-1.352Q394.171,273.809,377.531,276ZM491,304a78.341,78.341,0,0,1-7,8c-9.768,9.624-18.5,24.786-29,38-1.336,1.68-2.669,3.316-4,5-3.457,4.371-10.9,14.265-13,17-4.177,5.437-8.615,10.507-13,16-6.442,8.071-11.708,15.608-18,21-9.273,7.947-18.976,14.184-29,18-11.739,4.468-21.53,4.774-32,6a139.849,139.849,0,0,0-41,11.65V337.243C369.9,336.389,434.955,321.3,497,294A62.3,62.3,0,0,1,491,304ZM295.978,333.7l11.576,0.117-1.086,107.538-11.576-.117Z"/>
  <path id="Прямоугольник_1" data-name="Прямоугольник 1" class="cls-2" d="M488,450c-0.355.636-6.009-2.274-13-5-9.8-3.821-36.623-8.393-63-8-27.466.409-54.3,5.29-67,10-6.827,2.53-20.478,8.675-26,11-4.683,1.972-9.321,3.887-14,5.786V464h-0.529q-1.234.5-2.471,1v-1h-0.5v0.25l-0.618-.25H299v-0.762c-4.849-1.964-9.651-3.946-14.5-5.988-5.522-2.325-19.173-8.47-26-11-12.705-4.71-39.534-9.591-67-10-26.377-.393-53.2,4.179-63,8-6.991,2.726-12.645,5.636-13,5-0.554-1,12.171-10.039,27-17a142.891,142.891,0,0,1,40-12l24-2c5.009-.213,9.976-0.214,15,0,9.85,0.419,24.761,2.957,39,6,10.525,2.249,19.306,4.512,28,8q6.4,2.57,12.516,5.75h2.93q5.413-2.734,11.054-5c8.694-3.488,17.475-5.75,28-8,14.239-3.043,29.15-5.581,39-6,5.024-.214,9.991-0.213,15,0l24,2a142.891,142.891,0,0,1,40,12C475.829,439.961,488.554,449.005,488,450Z"/>
</svg>
